<svg width="1000" height="400" viewBox="0 0 1000 400" fill="none" xmlns="http://www.w3.org/2000/svg">
<rect width="1000" height="400" rx="28" fill="#DBDBDB"/>
<path d="M453.12 215.1H438.12L435.84 222H423.48L438.9 179.7H452.46L467.82 222H455.4L453.12 215.1ZM450.18 206.1L445.62 192.42L441.12 206.1H450.18ZM503.813 204.78C503.813 205.7 503.753 206.62 503.633 207.54H481.373C481.493 209.38 481.993 210.76 482.873 211.68C483.793 212.56 484.953 213 486.353 213C488.313 213 489.713 212.12 490.553 210.36H503.093C502.573 212.68 501.553 214.76 500.033 216.6C498.553 218.4 496.673 219.82 494.393 220.86C492.113 221.9 489.593 222.42 486.833 222.42C483.513 222.42 480.553 221.72 477.953 220.32C475.393 218.92 473.373 216.92 471.893 214.32C470.453 211.72 469.733 208.66 469.733 205.14C469.733 201.62 470.453 198.58 471.893 196.02C473.333 193.42 475.333 191.42 477.893 190.02C480.493 188.62 483.473 187.92 486.833 187.92C490.153 187.92 493.093 188.6 495.653 189.96C498.213 191.32 500.213 193.28 501.653 195.84C503.093 198.36 503.813 201.34 503.813 204.78ZM491.813 201.84C491.813 200.4 491.333 199.28 490.373 198.48C489.413 197.64 488.213 197.22 486.773 197.22C485.333 197.22 484.153 197.62 483.233 198.42C482.313 199.18 481.713 200.32 481.433 201.84H491.813ZM520.386 194.28C521.706 192.36 523.306 190.84 525.186 189.72C527.066 188.6 529.086 188.04 531.246 188.04V200.58H527.946C525.386 200.58 523.486 201.08 522.246 202.08C521.006 203.08 520.386 204.82 520.386 207.3V222H508.626V188.34H520.386V194.28ZM551.122 222.42C547.762 222.42 544.742 221.72 542.062 220.32C539.422 218.92 537.342 216.92 535.822 214.32C534.302 211.72 533.542 208.66 533.542 205.14C533.542 201.66 534.302 198.62 535.822 196.02C537.382 193.42 539.482 191.42 542.122 190.02C544.802 188.62 547.822 187.92 551.182 187.92C554.542 187.92 557.542 188.62 560.182 190.02C562.862 191.42 564.962 193.42 566.482 196.02C568.042 198.62 568.822 201.66 568.822 205.14C568.822 208.62 568.042 211.68 566.482 214.32C564.962 216.92 562.862 218.92 560.182 220.32C557.502 221.72 554.482 222.42 551.122 222.42ZM551.122 212.22C552.762 212.22 554.122 211.62 555.202 210.42C556.322 209.18 556.882 207.42 556.882 205.14C556.882 202.86 556.322 201.12 555.202 199.92C554.122 198.72 552.782 198.12 551.182 198.12C549.582 198.12 548.242 198.72 547.162 199.92C546.082 201.12 545.542 202.86 545.542 205.14C545.542 207.46 546.062 209.22 547.102 210.42C548.142 211.62 549.482 212.22 551.122 212.22ZM601.686 180.3V185.88H590.586V222H583.746V185.88H572.586V180.3H601.686ZM615.453 193.74C616.453 192.06 617.773 190.76 619.413 189.84C621.093 188.88 623.073 188.4 625.353 188.4V195.48H623.613C620.933 195.48 618.893 196.16 617.493 197.52C616.133 198.88 615.453 201.24 615.453 204.6V222H608.613V188.94H615.453V193.74ZM629.361 205.32C629.361 202 630.041 199.06 631.401 196.5C632.801 193.94 634.681 191.96 637.041 190.56C639.441 189.12 642.081 188.4 644.961 188.4C647.561 188.4 649.821 188.92 651.741 189.96C653.701 190.96 655.261 192.22 656.421 193.74V188.94H663.321V222H656.421V217.08C655.261 218.64 653.681 219.94 651.681 220.98C649.681 222.02 647.401 222.54 644.841 222.54C642.001 222.54 639.401 221.82 637.041 220.38C634.681 218.9 632.801 216.86 631.401 214.26C630.041 211.62 629.361 208.64 629.361 205.32ZM656.421 205.44C656.421 203.16 655.941 201.18 654.981 199.5C654.061 197.82 652.841 196.54 651.321 195.66C649.801 194.78 648.161 194.34 646.401 194.34C644.641 194.34 643.001 194.78 641.481 195.66C639.961 196.5 638.721 197.76 637.761 199.44C636.841 201.08 636.381 203.04 636.381 205.32C636.381 207.6 636.841 209.6 637.761 211.32C638.721 213.04 639.961 214.36 641.481 215.28C643.041 216.16 644.681 216.6 646.401 216.6C648.161 216.6 649.801 216.16 651.321 215.28C652.841 214.4 654.061 213.12 654.981 211.44C655.941 209.72 656.421 207.72 656.421 205.44ZM670.025 205.44C670.025 202.04 670.705 199.06 672.065 196.5C673.465 193.9 675.385 191.9 677.825 190.5C680.265 189.1 683.065 188.4 686.225 188.4C690.225 188.4 693.525 189.36 696.125 191.28C698.765 193.16 700.545 195.86 701.465 199.38H694.085C693.485 197.74 692.525 196.46 691.205 195.54C689.885 194.62 688.225 194.16 686.225 194.16C683.425 194.16 681.185 195.16 679.505 197.16C677.865 199.12 677.045 201.88 677.045 205.44C677.045 209 677.865 211.78 679.505 213.78C681.185 215.78 683.425 216.78 686.225 216.78C690.185 216.78 692.805 215.04 694.085 211.56H701.465C700.505 214.92 698.705 217.6 696.065 219.6C693.425 221.56 690.145 222.54 686.225 222.54C683.065 222.54 680.265 221.84 677.825 220.44C675.385 219 673.465 217 672.065 214.44C670.705 211.84 670.025 208.84 670.025 205.44ZM721.361 205.5L736.601 222H727.361L715.121 207.78V222H708.281V177.6H715.121V203.4L727.121 188.94H736.601L721.361 205.5ZM771.804 204.66C771.804 205.9 771.724 207.02 771.564 208.02H746.304C746.504 210.66 747.484 212.78 749.244 214.38C751.004 215.98 753.164 216.78 755.724 216.78C759.404 216.78 762.004 215.24 763.524 212.16H770.904C769.904 215.2 768.084 217.7 765.444 219.66C762.844 221.58 759.604 222.54 755.724 222.54C752.564 222.54 749.724 221.84 747.204 220.44C744.724 219 742.764 217 741.324 214.44C739.924 211.84 739.224 208.84 739.224 205.44C739.224 202.04 739.904 199.06 741.264 196.5C742.664 193.9 744.604 191.9 747.084 190.5C749.604 189.1 752.484 188.4 755.724 188.4C758.844 188.4 761.624 189.08 764.064 190.44C766.504 191.8 768.404 193.72 769.764 196.2C771.124 198.64 771.804 201.46 771.804 204.66ZM764.664 202.5C764.624 199.98 763.724 197.96 761.964 196.44C760.204 194.92 758.024 194.16 755.424 194.16C753.064 194.16 751.044 194.92 749.364 196.44C747.684 197.92 746.684 199.94 746.364 202.5H764.664ZM785.375 193.74C786.375 192.06 787.695 190.76 789.335 189.84C791.015 188.88 792.995 188.4 795.275 188.4V195.48H793.535C790.855 195.48 788.815 196.16 787.415 197.52C786.055 198.88 785.375 201.24 785.375 204.6V222H778.535V188.94H785.375V193.74Z" fill="black"/>
<rect x="216" y="125" width="150" height="150" rx="30" fill="#2C2C2C"/>
<path d="M300.61 193.044L278.059 213.686C277.866 213.863 277.57 213.859 277.381 213.678C277.175 213.48 277.179 213.149 277.39 212.956L299.941 192.314C300.134 192.137 300.43 192.141 300.619 192.322C300.825 192.52 300.821 192.851 300.61 193.044Z" stroke="#767676" stroke-width="7"/>
<path d="M276.389 212.236L248.222 198.875C244.299 197.014 244.45 191.38 248.467 189.731L326.938 157.538C331.044 155.854 335.146 159.956 333.462 164.062L301.269 242.533C299.62 246.55 293.986 246.701 292.125 242.778L278.764 214.611C278.27 213.569 277.431 212.73 276.389 212.236Z" stroke="white" stroke-width="7"/>
</svg>
